<?xml version="1.0" encoding="UTF-8" standalone="no"?>
<svg
   width="2000"
   height="3350"
   viewBox="0 0 2000 3350"
   version="1.1"
   id="svg17"
   sodipodi:docname="leaf.svg"
   inkscape:version="1.2.1 (9c6d41e410, 2022-07-14)"
   xmlns:inkscape="http://www.inkscape.org/namespaces/inkscape"
   xmlns:sodipodi="http://sodipodi.sourceforge.net/DTD/sodipodi-0.dtd"
   xmlns="http://www.w3.org/2000/svg"
   xmlns:svg="http://www.w3.org/2000/svg">
  <sodipodi:namedview
     id="namedview19"
     pagecolor="#ffffff"
     bordercolor="#000000"
     borderopacity="0.25"
     inkscape:showpageshadow="2"
     inkscape:pageopacity="0.0"
     inkscape:pagecheckerboard="0"
     inkscape:deskcolor="#d1d1d1"
     showgrid="false"
     inkscape:zoom="22.627417"
     inkscape:cx="1007.7155"
     inkscape:cy="222.29669"
     inkscape:window-width="1920"
     inkscape:window-height="1017"
     inkscape:window-x="-8"
     inkscape:window-y="-8"
     inkscape:window-maximized="1"
     inkscape:current-layer="g15" />
  <defs
     id="defs4">
    <style
       id="style2">
      .cls-1, .cls-2 {
        fill: #4e90cd;
      }

      .cls-1 {
        fill-rule: evenodd;
      }
    </style>
  </defs>
  <rect
     class="cls-2"
     x="997"
     y="215"
     width="4"
     height="3135"
     id="rect9" />
  <path
     class="cls-1"
     d="M997,213h4V34h-4V213Z"
     id="path11" />
  <g
     id="g15">
    <path
       id="Shape_1_copy_2-2"
       class="cls-1"
       d="m 994.412,35.873 c 0,0 -51.663,18.256 -48.367,77.1 1.932,44.524 49.492,97.313 49.492,97.313 l 3.513,3.743 V 34.376 Z m 9.258,0 c 0,0 51.58,18.256 48.29,77.1 -1.93,44.524 -49.41,97.313 -49.41,97.313 l -3.507,3.743 V 34.376 Z m 76.41,3288.067 c 0,0 901.83,-318.68 844.3,-1345.88 C 1890.66,1200.84 1060.45,279.371 1060.45,279.371 L 999.123,214.037 V 3350.07 Z m -161.653,0 c 0,0 -900.237,-318.68 -842.809,-1345.88 33.66,-777.22 862.409,-1698.689 862.409,-1698.689 l 30.608,-32.667 15.304,-16.3335 7.652,-8.16675 7.652,-8.16675 V 3350.07 Z"
       sodipodi:nodetypes="ccccccccccccccccccccccccccc" />
  </g>
</svg>
